<svg id="Capa_1" style="enable-background:new 0 0 469.337 469.337;" version="1.1" viewBox="0 0 469.337 469.337" x="0px" xmlns="http://www.w3.org/2000/svg" y="0px">
                                   <path d="M149.337,469.335H302.33c11.316,0,22.168-4.495,30.17-12.497l124.34-124.34 c8.002-8.002,12.497-18.854,12.497-30.17V42.668c0-23.564-19.102-42.667-42.667-42.667c0,0,0,0,0,0H149.337 c-23.564,0-42.667,19.103-42.667,42.667l0,0v384C106.67,450.232,125.773,469.335,149.337,469.335L149.337,469.335z" style="fill:#5628B4;"></path>
                                   <path d="M320.003,341.338L320.003,341.338c11.783,0,21.334,9.551,21.334,21.333v64.004 c0,11.782-9.551,21.333-21.333,21.333h-0.001c-11.782,0-21.333-9.551-21.333-21.333v-64.004 C298.67,350.889,308.221,341.338,320.003,341.338z" style="fill:#461494;"></path>
                                   <g>
                                      <path d="M160.007,42.668h63.996c5.891,0,10.667,4.776,10.667,10.667l0,0c0,5.891-4.776,10.666-10.667,10.666 h-63.996c-5.891,0-10.667-4.776-10.667-10.666l0,0C149.34,47.444,154.116,42.668,160.007,42.668z" style="fill:#E00F45;"></path>
                                      <path d="M160.007,149.338h63.996c5.891,0,10.667,4.776,10.667,10.667v0c0,5.891-4.776,10.667-10.667,10.667 h-63.996c-5.891,0-10.667-4.776-10.667-10.667v0C149.34,154.114,154.116,149.338,160.007,149.338z" style="fill:#E00F45;"></path>
                                   </g>
                                   <g>
                                      <path d="M266.667,42.668h149.336c5.891,0,10.667,4.776,10.667,10.667l0,0 c0,5.891-4.776,10.666-10.667,10.666H266.667c-5.891,0-10.667-4.776-10.667-10.666l0,0C256,47.444,260.776,42.668,266.667,42.668z" style="fill:#E9E2F5;"></path>
                                      <path d="M266.667,149.338h85.336c5.891,0,10.667,4.776,10.667,10.667v0c0,5.891-4.776,10.667-10.667,10.667 h-85.336c-5.891,0-10.667-4.776-10.667-10.667v0C256,154.114,260.776,149.338,266.667,149.338z" style="fill:#E9E2F5;"></path>
                                      <path d="M266.667,191.998h42.666c5.891,0,10.667,4.776,10.667,10.667v0c0,5.891-4.776,10.667-10.667,10.667 h-42.666c-5.891,0-10.667-4.776-10.667-10.667v0C256,196.774,260.776,191.998,266.667,191.998z" style="fill:#E9E2F5;"></path>
                                   </g>
                                   <path d="M160.007,255.998h63.996c5.891,0,10.667,4.776,10.667,10.667l0,0c0,5.891-4.776,10.667-10.667,10.667 h-63.996c-5.891,0-10.667-4.776-10.667-10.667l0,0C149.34,260.774,154.116,255.998,160.007,255.998z" style="fill:#E00F45;"></path>
                                   <g>
                                      <path d="M266.667,255.998h63.996c5.891,0,10.667,4.776,10.667,10.667l0,0 c0,5.891-4.776,10.667-10.667,10.667h-63.996c-5.891,0-10.667-4.776-10.667-10.667l0,0 C256,260.774,260.776,255.998,266.667,255.998z" style="fill:#E9E2F5;"></path>
                                      <path d="M373.337,255.998h42.666c5.891,0,10.667,4.776,10.667,10.667l0,0 c0,5.891-4.776,10.667-10.667,10.667h-42.666c-5.891,0-10.667-4.776-10.667-10.667l0,0 C362.67,260.774,367.446,255.998,373.337,255.998z" style="fill:#E9E2F5;"></path>
                                   </g>
                                   <path d="M160.007,319.998h63.996c5.891,0,10.667,4.776,10.667,10.667l0,0c0,5.891-4.776,10.667-10.667,10.667 h-63.996c-5.891,0-10.667-4.776-10.667-10.667l0,0C149.34,324.774,154.116,319.998,160.007,319.998z" style="fill:#E00F45;"></path>
                                   <g>
                                      <path d="M266.667,319.998h106.666c5.891,0,10.667,4.776,10.667,10.667l0,0 c0,5.891-4.776,10.667-10.667,10.667H266.667c-5.891,0-10.667-4.776-10.667-10.667l0,0 C256,324.774,260.776,319.998,266.667,319.998z" style="fill:#E9E2F5;"></path>
                                      <path d="M266.667,85.338H288c5.891,0,10.667,4.776,10.667,10.667v0c0,5.891-4.776,10.667-10.667,10.667 h-21.333c-5.891,0-10.667-4.776-10.667-10.667v0C256,90.114,260.776,85.338,266.667,85.338z" style="fill:#E9E2F5;"></path>
                                      <path d="M266.667,362.668H288c5.891,0,10.667,4.776,10.667,10.667l0,0c0,5.891-4.776,10.667-10.667,10.667 h-21.333c-5.891,0-10.667-4.776-10.667-10.667l0,0C256,367.444,260.776,362.668,266.667,362.668z" style="fill:#E9E2F5;"></path>
                                      <path d="M330.667,85.338h85.336c5.891,0,10.667,4.776,10.667,10.667v0c0,5.891-4.776,10.667-10.667,10.667 h-85.336c-5.891,0-10.667-4.776-10.667-10.667v0C320,90.114,324.776,85.338,330.667,85.338z" style="fill:#E9E2F5;"></path>
                                   </g>
                                   <path d="M362.67,320.002h76.677c6.861,0,12.422,5.562,12.422,12.422c0,3.295-1.309,6.454-3.638,8.784 L341.209,448.129c-4.851,4.851-12.716,4.851-17.568,0c-2.33-2.33-3.638-5.489-3.638-8.784v-76.677 C320.003,339.104,339.106,320.002,362.67,320.002C362.67,320.002,362.67,320.002,362.67,320.002L362.67,320.002z" style="fill:#815FC6;"></path>
                                   <path d="M330.665,416.004l85.468-85.468c5.889-5.889,15.437-5.889,21.326,0l0.007,0.007 c5.889,5.889,5.889,15.437,0,21.326l-85.468,85.468c-5.889,5.889-15.437,5.889-21.326,0l-0.007-0.007 C324.776,431.441,324.776,421.893,330.665,416.004z" style="fill:#7651C1;"></path>
                                   <circle cx="106.67" cy="170.668" r="106.67" style="fill:#F7B236;"></circle>
                                   <g>
                                      <path d="M0.003,170.668c0,58.91,47.756,106.667,106.667,106.667s106.667-47.756,106.667-106.667 S165.58,64.002,106.67,64.002l0,0l-0.132,0h-0.023l-0.126,0h-0.027l-0.127,0l-0.016,0l-0.118,0l-0.025,0l-0.125,0.001l-0.027,0 l-0.125,0.001l-0.024,0l-0.118,0.001l-0.017,0l-0.123,0.001l-0.033,0l-0.121,0.001l-0.027,0l-0.122,0.002l-0.012,0l-0.125,0.002 l-0.03,0l-0.12,0.002l-0.033,0.001l-0.121,0.002l-0.022,0l-0.109,0.002l-0.031,0.001l-0.119,0.002l-0.035,0.001l-0.116,0.002 l-0.036,0.001l-0.097,0.002l-0.034,0.001l-0.115,0.003l-0.039,0.001l-0.116,0.003l-0.035,0.001l-0.099,0.003l-0.042,0.001 l-0.104,0.003l-0.039,0.001l-0.113,0.003l-0.04,0.001l-0.105,0.003l-0.04,0.001l-0.097,0.003l-0.039,0.001l-0.113,0.004L103,64.064 l-0.114,0.004l-0.034,0.001l-0.098,0.004l-0.032,0.001l-0.117,0.004l-0.036,0.001l-0.117,0.004l-0.032,0.001l-0.105,0.004 l-0.029,0.001l-0.117,0.005l-0.033,0.001l-0.117,0.005l-0.035,0.002l-0.122,0.005l-0.01,0l-0.119,0.005l-0.028,0.001l-0.122,0.006 l-0.027,0.001l-0.125,0.006l-0.017,0.001l-0.123,0.006l-0.013,0.001l-0.131,0.007l-0.02,0.001l-0.131,0.007l-0.012,0.001 c-0.091,0.005-0.183,0.01-0.273,0.015l-0.013,0.001l-0.137,0.008l-0.005,0c-0.095,0.005-0.19,0.011-0.285,0.017l-0.002,0 c-0.962,0.057-1.921,0.127-2.876,0.209c-0.166,0.014-0.331,0.03-0.495,0.048c-0.122,0.009-0.244,0.018-0.366,0.029 c-0.424,0.04-0.846,0.082-1.269,0.127l-0.205,0.022l-0.01,0.001c-0.094,0.01-0.182,0.02-0.276,0.03 C84.083,65.89,76.014,74.936,76.007,85.695c-0.001,11.852,9.607,21.461,21.459,21.461c0.73,0,1.459-0.037,2.185-0.111l0.702-0.072 c0.104-0.011,0.208-0.022,0.312-0.034c0.13-0.009,0.261-0.019,0.391-0.03c1.85-0.16,3.722-0.24,5.615-0.24 c35.346,0,64,28.654,64,64s-28.654,64-64,64s-64-28.654-64-64c-0.007-11.782-9.564-21.327-21.346-21.32 C9.552,149.355,0.01,158.896,0.003,170.668L0.003,170.668z" style="fill:#F5892E;"></path>
                                      <path d="M42.67,256.002h128v42.667h-128V256.002z" style="fill:#F5892E;"></path>
                                   </g>
                                   <path d="M106.673,255.998h42.664c11.782,0,21.333,9.551,21.333,21.333v0.001 c0,11.782-9.551,21.333-21.333,21.333h-42.664c-11.782,0-21.333-9.551-21.333-21.333v-0.001 C85.34,265.549,94.891,255.998,106.673,255.998z" style="fill:#F36600;"></path>
                                   <path d="M64.003,320.002h85.333l0,0v42.667c0,23.564-19.102,42.667-42.667,42.667c0,0,0,0,0,0 c-23.564,0-42.667-19.102-42.667-42.667c0,0,0,0,0,0V320.002L64.003,320.002L64.003,320.002z" style="fill:#7F5DC7;"></path>
                                   <path d="M85.337,362.668c0,11.782,9.551,21.333,21.333,21.333c9.615,0.077,17.954,6.664,20.257,16 c13.764-7.379,22.37-21.716,22.41-37.333v-21.333H106.67c-11.782,0-21.333,9.55-21.333,21.332 C85.337,362.668,85.337,362.668,85.337,362.668z" style="fill:#663EBD;"></path>
                                   <path d="M170.67,277.335h-128c-11.782,0-21.333,9.551-21.333,21.333c0,0,0,0,0,0 c0,11.782,9.551,21.333,21.333,21.333c0,0,0,0,0,0h-2.518c8.141,0,14.741,6.6,14.741,14.741c0,2.288-0.533,4.545-1.556,6.592 c-3.641,7.282-0.689,16.136,6.592,19.777c2.047,1.023,4.304,1.556,6.592,1.556h80.297c8.141,0,14.741-6.6,14.741-14.741 c0-2.288-0.533-4.545-1.556-6.592c-3.641-7.282-0.689-16.136,6.592-19.777c2.047-1.023,4.304-1.556,6.592-1.556h-2.518 c11.782,0,21.333-9.551,21.333-21.333c0,0,0,0,0,0C192.003,286.886,182.452,277.335,170.67,277.335 C170.67,277.335,170.67,277.335,170.67,277.335L170.67,277.335z" style="fill:#E0D8F1;"></path>
                                   <path d="M106.67,106.668c-35.346,0-64,28.654-64,64l0,0.091v0.027l0,0.073v0.021l0,0.09l0,0.024l0,0.069 l0,0.028l0.001,0.089l0,0.017l0.001,0.077l0,0.025l0.001,0.09v0.003l0.001,0.091l0,0.027l0.001,0.076l0,0.016l0.001,0.092l0,0.021 l0.001,0.076l0,0.021l0.002,0.092l0,0.015l0.002,0.078l0,0.024l0.002,0.085l0,0.007l0.002,0.09l0.001,0.027l0.002,0.07l0.001,0.025 l0.002,0.089l0.001,0.021l0.002,0.073l0.001,0.025l0.003,0.091l0,0.011l0.003,0.081l0.001,0.025l0.003,0.089l0,0.002l0.003,0.094 l0.001,0.02l0.003,0.081l0.001,0.015l0.003,0.091l0.001,0.022l0.003,0.074l0.001,0.022l0.004,0.092l0,0.01l0.004,0.083l0.001,0.023 l0.004,0.083l0,0.01l0.004,0.092l0.001,0.022l0.003,0.074l0.001,0.022l0.004,0.09l0.001,0.018l0.004,0.074l0.001,0.026l0.005,0.09 l0,0.006l0.005,0.087l0.001,0.021l0.005,0.087l0,0.005l0.005,0.093l0.001,0.02l0.005,0.079l0.001,0.016l0.006,0.094l0.001,0.01 l0.005,0.084l0.001,0.019l0.006,0.094l0,0.001l0.006,0.091l0.001,0.02l0.006,0.088l0,0.005l0.006,0.094l0.001,0.017l0.005,0.08 l0.001,0.017l0.007,0.095l0,0.006l0.006,0.087l0.001,0.02c0.004,0.062,0.009,0.123,0.014,0.185l0.002,0.023l0.006,0.08l0.001,0.012 l0.007,0.092l0.001,0.018l0.006,0.077l0.002,0.02l0.007,0.09l0.001,0.016l0.006,0.077l0.002,0.022 c0.005,0.061,0.01,0.123,0.016,0.185l0.002,0.019l0.007,0.084l0.001,0.009l0.009,0.095l0.001,0.012l0.008,0.083l0.002,0.017 l0.009,0.093l0,0.006l0.008,0.085l0.002,0.022l0.018,0.185l0.002,0.018l0.008,0.081l0.001,0.013L43,177.205l0.002,0.019l0.008,0.078 l0.002,0.016l0.01,0.094l0,0.002l0.01,0.092l0.002,0.015c0.007,0.063,0.013,0.125,0.02,0.188l0.002,0.015l0.009,0.084l0.001,0.01 l0.01,0.094l0.001,0.013l0.009,0.08l0.002,0.02l0.021,0.185l0.002,0.016l0.022,0.187l0.002,0.015l0.011,0.088l0.001,0.005 l0.012,0.097l0.001,0.007l0.011,0.089l0.002,0.012c0.008,0.063,0.016,0.126,0.024,0.188l0.002,0.013l0.025,0.19l0.001,0.009 l0.012,0.092l0,0.004l0.026,0.194l0.001,0.008l0.026,0.191l0.001,0.01l0.027,0.193l0,0.002l0.014,0.096l0,0.003 c0.009,0.064,0.019,0.129,0.028,0.193l0.001,0.008l0.029,0.191l0.001,0.009l0.029,0.192l0.001,0.005l0.015,0.095l0,0.001 l0.031,0.194l0.001,0.007l0.031,0.193l0.001,0.005c0.011,0.066,0.021,0.129,0.032,0.194l0,0.003c0.027,0.165,0.055,0.326,0.083,0.49 l0.001,0.004c0.017,0.099,0.034,0.194,0.052,0.293l0,0l0.035,0.195l0.001,0.004c0.012,0.066,0.023,0.128,0.036,0.194l0,0.002 c0.03,0.164,0.061,0.325,0.092,0.489l0,0.002c0.044,0.229,0.089,0.454,0.136,0.682l0.001,0.003 c3.816,18.495,15.594,34.365,32.191,43.375l0.003,0.002c0.055,0.03,0.111,0.06,0.166,0.09l0.006,0.003 c0.053,0.029,0.111,0.06,0.165,0.089l0.007,0.004c0.055,0.03,0.111,0.06,0.166,0.089l0.002,0.001l0.08,0.043l0.006,0.003 c0.055,0.029,0.11,0.058,0.165,0.087l0.008,0.004l0.164,0.086l0.008,0.005l0.075,0.039l0.008,0.004l0.081,0.042l0.007,0.004 l0.075,0.039l0.01,0.005l0.044,0.023c10.482,5.38,23.341,1.245,28.721-9.237c5.372-10.466,1.258-23.305-9.196-28.7 c-10.487-5.382-14.625-18.246-9.243-28.733c3.653-7.117,10.979-11.594,18.979-11.598c11.782-0.007,21.327-9.564,21.32-21.346 C127.983,116.217,118.442,106.676,106.67,106.668L106.67,106.668z" style="fill:#FBDDA6;"></path>
                                   <path d="M85.337,309.335c0,5.891,4.776,10.666,10.667,10.667c0,0,10.667,4.775,10.667,10.667 c0,5.891,4.776,10.666,10.667,10.667h42.667c-3.641-7.281-0.69-16.136,6.592-19.777c2.047-1.024,4.305-1.557,6.593-1.556h-2.518 c11.782,0,21.333-9.551,21.333-21.333h-96C90.112,298.668,85.337,303.444,85.337,309.335 C85.337,309.335,85.337,309.335,85.337,309.335L85.337,309.335z" style="fill:#C0AFE3;"></path>
                                   <g></g>
                                   <g></g>
                                   <g></g>
                                   <g></g>
                                   <g></g>
                                   <g></g>
                                   <g></g>
                                   <g></g>
                                   <g></g>
                                   <g></g>
                                   <g></g>
                                   <g></g>
                                   <g></g>
                                   <g></g>
                                   <g></g>
                                </svg>