<svg id="Capa_1" style="enable-background:new 0 0 469.334 469.334;" version="1.1" viewBox="0 0 469.334 469.334" x="0px" xmlns="http://www.w3.org/2000/svg" y="0px">
                                   <path d="M264.488,469.334H170.69c-23.564,0-42.667-19.103-42.667-42.667c0-3.712,0.484-7.407,1.441-10.994 l71.024-266.34h149.333L264.488,469.334z" style="fill:#C0A6DB;"></path>
                                   <path d="M170.667,320.001c-8.012,0.055-15.306,4.63-18.842,11.819l-2.349,8.811 c-0.009,0.247-0.142,0.453-0.142,0.703l-0.228,0.685l-19.193,71.97c4.754,10.752,17.324,15.614,28.076,10.86 c7.723-3.415,12.697-11.071,12.678-19.515l21.333-64c0-11.782-9.55-21.333-21.332-21.333C170.668,320,170.667,320,170.667,320.001 L170.667,320.001z" style="fill:#A783CD;"></path>
                                   <path d="M274.69,431.077l75.132-281.743H224.621L152.13,421.17c-3.036,11.385,3.732,23.075,15.117,26.11 c1.793,0.478,3.641,0.72,5.497,0.72h104.556C274.062,442.987,273.113,436.833,274.69,431.077L274.69,431.077z" style="fill:#DCCFEF;"></path>
                                   <path d="M213.334,405.334h64c1.516-0.133,3.013-0.435,4.462-0.901l9.646-36.176 c-3.846-3.55-8.874-5.543-14.108-5.59H170.667c-1.049,0.127-2.087,0.337-3.103,0.626l-15.434,57.876 c-3.036,11.385,3.732,23.075,15.117,26.11c1.793,0.478,3.641,0.72,5.497,0.72H192v-21.333c0-11.782,9.55-21.333,21.332-21.333 C213.333,405.334,213.333,405.334,213.334,405.334L213.334,405.334z" style="fill:#CEBCE9;"></path>
                                   <path d="M426.667,384.004H42.671c-23.564,0-42.667-19.103-42.667-42.667V42.671 c0-23.564,19.103-42.667,42.667-42.667h383.996c23.564,0,42.667,19.103,42.667,42.667v298.666 C469.334,364.902,450.231,384.004,426.667,384.004z" style="fill:#CAB4E5;"></path>
                                   <path d="M426.663,384.004H63.997c-23.564,0-42.667-19.103-42.667-42.667V42.671 c0-23.564,19.103-42.667,42.667-42.667h362.666c23.564,0,42.667,19.103,42.667,42.667v298.666 C469.33,364.902,450.227,384.004,426.663,384.004z" style="fill:#E8DFF4;"></path>
                                   <path d="M64.001,0h362.666c23.564,0,42.667,19.103,42.667,42.667v234.666 c0,23.564-19.103,42.667-42.667,42.667H64.001c-23.564,0-42.667-19.103-42.667-42.667V42.667C21.334,19.103,40.437,0,64.001,0z" style="fill:#3D068C;"></path>
                                   <path d="M426.664,277.337H63.997V42.67h362.667L426.664,277.337z" style="fill:#5628B4;"></path>
                                   <g>
                                      <path d="M85.33,42.667h320.004c11.782,0,21.333,9.551,21.333,21.333v0.001 c0,11.782-9.551,21.333-21.333,21.333H85.33c-11.782,0-21.333-9.551-21.333-21.333V64C63.997,52.218,73.548,42.667,85.33,42.667z" style="fill:#7951C7;"></path>
                                      <path d="M394.667,106.667L394.667,106.667c17.673,0,32,14.327,32,32v85.33c0,17.673-14.327,32-32,32l0,0 c-17.673,0-32-14.327-32-32v-85.33C362.667,120.994,376.994,106.667,394.667,106.667z" style="fill:#7951C7;"></path>
                                      <path d="M85.33,106.667L85.33,106.667c11.783,0,21.334,9.551,21.334,21.333v106.664 c0,11.782-9.551,21.333-21.333,21.333H85.33c-11.782,0-21.333-9.551-21.333-21.333V128 C63.997,116.218,73.548,106.667,85.33,106.667z" style="fill:#7951C7;"></path>
                                   </g>
                                   <path d="M170.67,127.997h149.334c11.782,0,21.333,9.551,21.333,21.333v64.004 c0,11.782-9.551,21.333-21.333,21.333H170.67c-11.782,0-21.333-9.551-21.333-21.333V149.33 C149.337,137.548,158.888,127.997,170.67,127.997z" style="fill:#8F6DD6;"></path>
                                   <path d="M160.004,127.997H330.67c5.891,0,10.667,4.776,10.667,10.667v0c0,5.891-4.776,10.667-10.667,10.667 H160.004c-5.891,0-10.667-4.776-10.667-10.667v0C149.337,132.773,154.113,127.997,160.004,127.997z" style="fill:#7146C3;"></path>
                                   <path d="M232.484,447.997H352c5.891,0,10.667,4.776,10.667,10.667l0,0c0,5.891-4.776,10.667-10.667,10.667 H232.484c-5.891,0-10.667-4.776-10.667-10.667l0,0C221.817,452.773,226.593,447.997,232.484,447.997z" style="fill:#E6DCF3;"></path>
                                   <path d="M10.667,42.667L10.667,42.667c5.891,0,10.667,4.776,10.667,10.667V341.33 c0,5.891-4.776,10.667-10.667,10.667l0,0C4.776,351.997,0,347.221,0,341.33V53.334C0,47.443,4.776,42.667,10.667,42.667z" style="fill:#B698DB;"></path>
                                   <path d="M53.334,319.997H437.33c5.891,0,10.667,4.776,10.667,10.667l0,0c0,5.891-4.776,10.667-10.667,10.667 H53.334c-5.891,0-10.667-4.776-10.667-10.667l0,0C42.667,324.773,47.443,319.997,53.334,319.997z" style="fill:#DCCFEF;"></path>
                                   <g></g>
                                   <g></g>
                                   <g></g>
                                   <g></g>
                                   <g></g>
                                   <g></g>
                                   <g></g>
                                   <g></g>
                                   <g></g>
                                   <g></g>
                                   <g></g>
                                   <g></g>
                                   <g></g>
                                   <g></g>
                                   <g></g>
                                </svg>