<svg id="Capa_1" style="enable-background:new 0 0 512 512;" version="1.1" viewBox="0 0 512 512" x="0px" xmlns="http://www.w3.org/2000/svg" y="0px">
                                   <style>
                                      .st0{fill:#5628B4;} .st1{fill:#5B2CDD;} .st2{fill:#F2199F;} .st3{fill:#FFB600;} .st4{fill:#FFFFFF;} .st5{fill:#F948AE;} .st6{fill:#FF8B00;} .st7{fill:#2B597F;} .st8{fill:#FD646F;} .st9{fill:#FFC682;} .st10{fill:#93DDB7;} .st11{fill:#F5F5F5;} 
                                   </style>
                                   <g>
                                      <path class="st0" d="M470.8,112.8v337.9c0,22.8-18.5,41.2-41.2,41.2H82.4c-22.8,0-41.2-18.5-41.2-41.2V112.8H470.8z"></path>
                                      <path class="st1" d="M103,491.9H82.4c-22.8,0-41.2-18.5-41.2-41.2V112.8h20.6v337.9C61.8,473.5,80.3,491.9,103,491.9z"></path>
                                      <path class="st1" d="M470.8,131.3v134.3c-2.7,0.5-5.4,0.7-8.2,0.7h-7.2c-13.7,0-26-5.5-35-14.5c-9-8.9-14.5-21.3-14.5-35 c0,13.7-5.5,26-14.5,35c-8.9,9-21.3,14.5-35,14.5c-27.3,0-49.4-22.1-49.4-49.4c0,27.3-22.1,49.4-49.4,49.4h-1 c-13.7,0-26-5.5-35-14.5c-9-8.9-14.5-21.3-14.5-35c0,27.3-22.1,49.4-49.4,49.4h-2.1c-13.7,0-26-5.5-35-14.5 c-9-8.9-14.5-21.3-14.5-35c0,27.3-22.1,49.4-49.4,49.4h-7.2c-2.8,0-5.6-0.2-8.2-0.7V131.3L470.8,131.3z"></path>
                                      <path class="st2" d="M117.2,112.8l-10.1,69.1c-0.7,5.4-1,10.9-1,16.4c0,0.9,0,1.7-0.1,2.6c-1.3,26.1-22.9,46.9-49.4,46.9h-7.2 c-13.7,0-26-5.5-35-14.5c-8.4-8.4-13.8-19.7-14.4-32.4c0-0.9-0.1-1.7-0.1-2.6c0-5.4,1.2-10.8,3.5-15.7l37.7-69.8l34.6-10.3 L117.2,112.8z"></path>
                                      <path class="st3" d="M207.1,112.8v85.5c0,0.9,0,1.7-0.1,2.6c-1.3,26.1-22.9,46.9-49.4,46.9h-2.1c-13.7,0-26-5.5-35-14.5 c-8.4-8.4-13.8-19.7-14.4-32.4c0-0.9-0.1-1.7-0.1-2.6c0-5.5,0.4-11,1-16.4l10.1-69.1l43.5-10.3L207.1,112.8z"></path>
                                      <path class="st2" d="M307,112.8v85.5c0,0.9,0,1.7-0.1,2.6c-1.3,26.1-22.9,46.9-49.4,46.9h-1c-26.4,0-48-20.8-49.4-46.9 c0-0.9-0.1-1.7-0.1-2.6v-85.5l51-10.3L307,112.8z"></path>
                                      <path class="st3" d="M405.9,198.3c0,0.9,0,1.7-0.1,2.6c-0.6,12.6-6,24-14.4,32.4c-8.9,9-21.3,14.5-35,14.5 c-26.4,0-48-20.8-49.4-46.9c0-0.9-0.1-1.7-0.1-2.6v-85.5l45.8-10.3l43,10.3l9.1,69.1C405.6,187.3,405.9,192.8,405.9,198.3z"></path>
                                      <path class="st2" d="M512,198.3c0,0.9,0,1.7-0.1,2.6c-1.3,26.1-22.9,46.9-49.4,46.9h-7.2c-13.7,0-26-5.5-35-14.5 c-8.4-8.4-13.8-19.7-14.4-32.4c0-0.9-0.1-1.7-0.1-2.6c0-5.5-0.3-11-0.9-16.4l-9.1-69.1l37.4-10.3l37.6,10.3l37.7,69.8 c1.2,2.5,2,5,2.6,7.7C511.7,192.9,512,195.6,512,198.3L512,198.3z"></path>
                                      <path class="st4" d="M356.8,309c0.5-2.3-0.1-4.6-1.6-6.4c-1.5-1.8-3.7-2.8-6-2.8H175.1l-0.3-1.2c-2.8-13-14.4-22.5-27.7-22.5h-13.2 c-4.3,0-7.7,3.5-7.7,7.7c0,4.3,3.5,7.7,7.7,7.7h13.2c6,0,11.3,4.3,12.6,10.2l23,108.5c2.2,10.2,9.9,18.3,19.5,21.2 c-1.2,2.8-1.8,5.8-1.8,9c0,12.8,10.4,23.2,23.2,23.2s23.2-10.4,23.2-23.2c0-2.7-0.5-5.3-1.3-7.7H280c-0.9,2.4-1.3,5-1.3,7.7 c0,12.8,10.4,23.2,23.2,23.2c12.8,0,23.2-10.4,23.2-23.2c0-2.7-0.5-5.3-1.3-7.7h1.8c4.3,0,7.7-3.5,7.7-7.7c0-4.3-3.5-7.7-7.7-7.7 H210.4c-6,0-11.3-4.3-12.6-10.2l-2-9.4h39.1c0,0,0,0,0,0c0,0,0,0,0,0h49.4c0,0,0,0,0,0c0,0,0,0,0,0h48.2c3.7,0,6.8-2.6,7.6-6.2 l8.1-40.2c0.2-0.6,0.3-1.3,0.4-1.9L356.8,309z M231.3,440.4c0,4.3-3.5,7.7-7.7,7.7s-7.7-3.5-7.7-7.7c0-4.3,3.5-7.7,7.7-7.7 S231.3,436.1,231.3,440.4z M309.6,440.4c0,4.3-3.5,7.7-7.7,7.7c-4.3,0-7.7-3.5-7.7-7.7c0-4.3,3.5-7.7,7.7-7.7 C306.1,432.7,309.6,436.1,309.6,440.4z M334.6,341h-36.4l3.2-25.8h38.3L334.6,341z M241.7,382.2l-3.2-25.8h42.2l-3.2,25.8H241.7z M236.6,341l-3.2-25.8h52.5l-3.2,25.8H236.6z M217.8,315.2L221,341h-37.2l-5.5-25.8H217.8z M187.1,356.4h35.8l3.2,25.8h-33.6 L187.1,356.4z M293.1,382.2l3.2-25.8h35.2l-5.2,25.8H293.1z"></path>
                                      <path class="st5" d="M0.1,200.9h106c-1.3,26.1-22.9,46.9-49.4,46.9h-7.2c-13.7,0-26-5.5-35-14.5C6.1,224.9,0.7,213.5,0.1,200.9z"></path>
                                      <path class="st6" d="M106.2,200.9H207c-1.3,26.1-22.9,46.9-49.4,46.9h-2.1c-13.7,0-26-5.5-35-14.5 C112.2,224.9,106.8,213.5,106.2,200.9z"></path>
                                      <path class="st5" d="M207.1,200.9h99.8c-1.3,26.1-22.9,46.9-49.4,46.9h-1C230.1,247.8,208.5,227,207.1,200.9z"></path>
                                      <path class="st6" d="M307.1,200.9h98.8c-0.6,12.6-6,24-14.4,32.4c-8.9,9-21.3,14.5-35,14.5C330,247.8,308.4,227,307.1,200.9z"></path>
                                      <path class="st5" d="M511.9,200.9c-1.3,26.1-22.9,46.9-49.4,46.9h-7.2c-13.7,0-26-5.5-35-14.5c-8.4-8.4-13.8-19.7-14.4-32.4H511.9z"></path>
                                      <path class="st7" d="M41.2,112.8V61.3c0-22.8,18.4-41.2,41.2-41.2h347.2c22.8,0,41.2,18.4,41.2,41.2v51.5H41.2z"></path>
                                      <g>
                                         <path class="st7" d="M106,81.2c3.5-4.1,5.6-9.3,5.6-15c0-12.8-10.4-23.2-23.2-23.2c-7.2,0-13.7,3.3-17.9,8.5 c-2,2.3-3.9,4.6-5.9,6.9c-3.5,4.1-5.6,9.3-5.6,15c0,12.8,10.4,23.2,23.2,23.2c7.2,0,13.7-3.3,17.9-8.5 C100.2,88,104.1,83.4,106,81.2z"></path>
                                         <path class="st7" d="M167,81.5c3.5-4.1,5.6-9.3,5.6-15c0-12.8-10.4-23.2-23.2-23.2c-7.2,0-13.7,3.3-17.9,8.5 c-2,2.3-3.9,4.6-5.9,6.9c-3.5,4.1-5.6,9.3-5.6,15c0,12.8,10.4,23.2,23.2,23.2c7.2,0,13.7-3.3,17.9-8.5 C161.2,88.2,165.1,83.7,167,81.5L167,81.5z"></path>
                                         <path class="st7" d="M227.8,81.5c3.5-4.1,5.6-9.3,5.6-15c0-12.8-10.4-23.2-23.2-23.2c-7.2,0-13.7,3.3-17.9,8.5 c-2,2.3-3.9,4.6-5.9,6.9c-3.5,4.1-5.6,9.3-5.6,15c0,12.8,10.4,23.2,23.2,23.2c7.2,0,13.7-3.3,17.9-8.5 C222,88.2,225.9,83.7,227.8,81.5L227.8,81.5z"></path>
                                      </g>
                                      <path class="st8" d="M88.3,89.4c-12.8,0-23.2-10.4-23.2-23.2S75.6,43,88.3,43s23.2,10.4,23.2,23.2S101.1,89.4,88.3,89.4z"></path>
                                      <path class="st9" d="M149.4,89.6c-12.8,0-23.2-10.4-23.2-23.2s10.4-23.2,23.2-23.2s23.2,10.4,23.2,23.2S162.2,89.6,149.4,89.6z"></path>
                                      <path class="st10" d="M210.2,89.6c-12.8,0-23.2-10.4-23.2-23.2s10.4-23.2,23.2-23.2c12.8,0,23.2,10.4,23.2,23.2 S222.9,89.6,210.2,89.6z"></path>
                                      <path class="st7" d="M442.1,81.5c3.5-4.1,5.6-9.3,5.6-15c0-12.8-10.4-23.2-23.2-23.2h-137c-7.2,0-13.7,3.3-17.9,8.5 c-2,2.3-3.9,4.6-5.9,6.9c-3.5,4.1-5.6,9.3-5.6,15c0,12.8,10.4,23.2,23.2,23.2h137c7.2,0,13.7-3.3,17.9-8.5 C436.3,88.2,440.2,83.7,442.1,81.5z"></path>
                                      <path class="st11" d="M424.4,89.6h-137c-12.8,0-23.2-10.4-23.2-23.2s10.4-23.2,23.2-23.2h137c12.8,0,23.2,10.4,23.2,23.2 S437.2,89.6,424.4,89.6z"></path>
                                      <path class="st3" d="M149.4,89.6c-12.8,0-23.2-10.4-23.2-23.2s10.4-23.2,23.2-23.2s23.2,10.4,23.2,23.2S162.2,89.6,149.4,89.6z"></path>
                                      <path class="st10" d="M210.2,89.6c-12.8,0-23.2-10.4-23.2-23.2s10.4-23.2,23.2-23.2c12.8,0,23.2,10.4,23.2,23.2 S222.9,89.6,210.2,89.6z"></path>
                                   </g>
                                </svg>